<svg width="41.543213" height="41.505859" viewBox="0 0 41.5432 41.5059" fill="none" xmlns="http://www.w3.org/2000/svg" xmlns:xlink="http://www.w3.org/1999/xlink">
	<desc>
			Created with Pixso.
	</desc>
	<defs/>
	<path id="Звезда 1" d="M18.85 1.41L15.38 12.75C15.13 13.59 14.35 14.16 13.47 14.16L2 14.16C0.09 14.16 -0.73 16.58 0.78 17.75L10.26 25.06C10.92 25.57 11.2 26.43 10.95 27.23L7.38 38.91C6.81 40.77 8.97 42.27 10.51 41.08L19.55 34.11C20.26 33.55 21.27 33.55 21.99 34.11L31.02 41.08C32.56 42.27 34.73 40.77 34.15 38.91L30.58 27.23C30.34 26.43 30.61 25.57 31.27 25.06L40.76 17.75C42.27 16.58 41.44 14.16 39.53 14.16L28.06 14.16C27.18 14.16 26.41 13.59 26.15 12.75L22.68 1.41C22.1 -0.48 19.43 -0.48 18.85 1.41Z" fill="#FFFFFF" fill-opacity="1.000000" fill-rule="evenodd"/>
	<path id="Звезда 1" d="M15.38 12.75C15.13 13.59 14.35 14.16 13.47 14.16L2 14.16C0.09 14.16 -0.73 16.58 0.78 17.75L10.26 25.06C10.92 25.57 11.2 26.43 10.95 27.23L7.38 38.91C6.81 40.77 8.97 42.27 10.51 41.08L19.55 34.11C20.26 33.55 21.27 33.55 21.99 34.11L31.02 41.08C32.56 42.27 34.73 40.77 34.15 38.91L30.58 27.23C30.34 26.43 30.61 25.57 31.27 25.06L40.76 17.75C42.27 16.58 41.44 14.16 39.53 14.16L28.06 14.16C27.18 14.16 26.41 13.59 26.15 12.75L22.68 1.41C22.1 -0.48 19.43 -0.48 18.85 1.41L15.38 12.75ZM17.3 13.33C16.78 15.01 15.23 16.16 13.47 16.16L2 16.16L11.48 23.48C12.8 24.5 13.35 26.22 12.86 27.82L9.29 39.49L18.32 32.52C19.76 31.41 21.77 31.41 23.21 32.52L32.24 39.49L28.67 27.82C28.18 26.22 28.73 24.5 30.05 23.48L39.53 16.16L28.06 16.16C26.3 16.16 24.75 15.01 24.24 13.33L20.77 2L17.3 13.33Z" fill="#000000" fill-opacity="1.000000" fill-rule="evenodd"/>
</svg>
